<svg xmlns="http://www.w3.org/2000/svg" viewBox="0 0 32 32" fill="none">
  <rect width="32" height="32" rx="8" fill="#25D366"/>
  <path d="M16 5C10 5 5.2 9.8 5.2 15.8c0 1.9.5 3.7 1.4 5.3L5 27l6.1-1.6c1.5.8 3.2 1.3 5 1.3 5.9 0 10.8-4.8 10.8-10.8S21.9 5 16 5zm0 19.8c-1.6 0-3.1-.4-4.4-1.2l-.3-.2-3.6 1 1-3.5-.2-.3c-.8-1.4-1.3-2.9-1.3-4.6 0-4.9 4-8.9 8.9-8.9s8.9 4 8.9 8.9-4 8.8-9 8.8zm4.9-6.6c-.3-.1-1.6-.8-1.9-.9-.3-.1-.5-.1-.7.1-.2.3-.7.9-.9 1.1-.2.2-.3.2-.6.1-.3-.1-1.2-.4-2.3-1.4-.9-.8-1.4-1.7-1.6-2-.2-.3 0-.5.1-.6.1-.1.3-.3.4-.5.1-.1.1-.3.2-.4.1-.1 0-.3 0-.4-.1-.1-.7-1.6-.9-2.2-.2-.6-.4-.5-.6-.5h-.5c-.2 0-.5.1-.7.3-.3.3-1 1-1 2.4 0 1.4 1 2.8 1.2 3 .1.1 2 3.2 5 4.4.7.3 1.2.5 1.7.6.7.2 1.3.2 1.8.1.6-.1 1.8-.7 2-1.4.2-.7.2-1.3.2-1.4-.1-.3-.3-.3-.6-.4z" fill="white"/>
</svg>
